<svg xmlns="http://www.w3.org/2000/svg" fill="#2d4084" viewBox="5.5 6 310 230"><g transform="matrix(.13333 0 0 -.13333 -1 242)"><path d="M1108 563c-86-53-103-291-33-388 42-59 145-71 199-21 40 38 59 120 58 199-1 126-37 241-168 225-33-4-40-6-56-15zm-878 15c12-142 16-309 11-452 75 5 151 8 232 8-2 25-4 49-3 77-39 5-88-17-120 5-18 12-28 71-12 94 15 24 71 15 104 18-4 22-2 51-2 76-32 2-75-12-97 3-18 12-21 58-8 79 18 29 87 15 125 20v74c-74-1-163-9-230-2zm735-286c58 45 79 158 38 232-38 70-147 84-252 69 11-150 18-308 13-454 31 5 69 2 104 3 0 25-14 70-5 104 34 21 73 23 102 46zm1023 316c-23-155-47-310-79-456 30 4 68 2 102 2 4 35-9 75 15 92 22 15 69 10 82-10 13-22 4-54 13-84 33 3 74 5 107 2-33 126-66 265-87 398-3 20 1 43-13 59-42-5-94-1-140-3zM720 563c-32 67-177 73-224 12-23-29-26-75-21-109 15-102 145-111 171-179 11-28 5-59-20-64-58-10-42 68-41 97H485c8-47-2-73 8-104 33-102 238-87 255 20 20 119-82 134-143 184-7 6-19 18-25 30-3 6-29 101 30 92 44-6 20-90 26-120 27 5 63 2 94 3-4 62 8 100-10 138zm796 71c5-70 21-156 8-227-43 51-56 132-79 201-37 1-67-4-105-2 10-139 17-294 10-449 33 4 71 2 107 2-3 69-25 158-7 222 41-52 57-129 81-199 29 5 67 2 100 3-9 116-16 274-10 400 0 14 9 46-3 51-30-4-68-1-102-2zm255 0c11-58 19-123 28-207 5-48 38-195-30-183-26 4-28 34-34 63-27-8-61-11-99-10 8-83 45-137 130-138 90 0 143 51 143 138 0 116-34 232-33 350h-5c-30-8-67-8-100-13zm-265 76c249-28 557-37 814-7l40-304c5-34 15-71 13-102-2-38-20-80-30-117-12-39-25-76-34-115l-535 41c-178 13-362-9-549-18-175-8-361-24-543-33-90-4-177-6-271 2L279 70c-45 4-93 3-130 13-39 10-62 47-100 64 5 46 14 90 21 132 6 44 19 92 18 136-2 37-25 74-29 114-3 50 11 94 8 148 114 5 217 5 324 16 14 2 7-17 13-23 116 40 283 9 426-3 81-6 159-13 245-13 27 0 54 7 79 5 27-1 54-16 81-20 114-17 215 9 271 71"/><g fill="#fff"><path d="M1871 647h5c-1-118 33-234 33-350 0-87-53-138-143-138-85 1-122 55-130 138 38-1 72 2 99 10 6-29 8-59 34-63 68-12 35 135 30 183-9 84-17 149-28 207 33 5 70 5 100 13M1618 637c12-6 3-38 3-52-6-126 1-284 10-400-33-1-71 2-100-3-24 70-40 147-81 199-18-64 4-153 7-222-36 0-74 2-107-2 7 155 0 310-10 449 38-2 68 3 105 2 23-69 36-150 79-201 13 71-3 157-8 227 34 1 72-2 102 2M730 425c-31-1-67 2-94-3-6 30 18 114-26 120-59 9-33-86-30-92 6-12 18-24 25-30 61-50 163-65 143-184-17-107-222-122-255-20-10 31 0 57-8 104h100c-1-29-17-107 41-97 25 5 31 36 20 64-26 68-156 77-171 179-5 34-2 80 21 109 47 61 192 55 224-12 18-38 6-76 10-138M2039 325c10-7 41-7 51 0 5 61-12 120-26 171h-7c-11-50-28-118-18-171zm89 286c14-16 10-39 13-59 21-133 54-272 87-398-33 3-74 1-107-2-9 30 0 62-13 84-13 20-60 25-82 10-24-17-11-57-15-92-34 0-72 2-102-2 32 146 56 301 79 456 46 2 98-2 140 3M873 333c36-8 55 60 54 99-1 48-22 95-61 90-4-2-7-4-8-8 1-41-16-174 15-181zm-10-87c-9-34 5-79 5-104-35-1-73 2-104-3 5 146-2 304-13 454 105 15 214 1 252-69 41-74 20-187-38-232-29-23-68-25-102-46M460 580v-74c-38-5-107 9-125-20-13-21-10-67 8-79 22-15 65-1 97-3 0-25-2-54 2-76-33-3-89 6-104-18-16-23-6-82 12-94 32-22 81 0 120-5-1-28 1-52 3-77-81 0-157-3-232-8 5 143 1 310-11 452 67-7 156 1 230 2"/><path d="M1136 427c-9-71-8-232 48-232 69 0 71 318-5 309-31-4-39-44-43-77zm28 151c131 16 167-99 168-225 1-79-18-161-58-199-54-50-157-38-199 21-70 97-53 335 33 388 16 9 23 11 56 15"/></g><path d="M858 514c1 4 4 6 8 8 39 5 60-42 61-90 1-39-18-107-54-99-31 7-14 140-15 181M1179 504c76 9 74-309 5-309-56 0-57 161-48 232 4 33 12 73 43 77M2057 496h7c14-51 31-110 26-171-10-7-41-7-51 0-10 53 7 121 18 171"/><path d="m335 1693 110-946 41-21 298 53 281 67 104-166 187-9 155 60 88 141 348-111 85 22c68 108 106 204 134 295 12 48 11 89 8 104-21 31-52 45-84 34l-211 31 124 335-291 43-25-347c-6-74-27-114-38-94-28 55-43 108-92 142a756 756 0 0 1-356 15c-161-63-166-138-150-238-11 59-29 105-59 130-26 34-114 47-145 62l-15 15 90 44c48 61 48 163 12 296a209 209 0 0 1-189 111c-123 5-256-24-410-68zm288-308c-18-4-51-10-64-3-5 61-12 120-21 177 17 6 37 10 57 13 20-50 32-130 28-187zm218-280c3-29 16-47 16-77-84-30-190-37-293-47-8 35-9 77-10 118 96 2 188 7 287 6zm406 77 134-13c4-77-11-177-36-242-25-12-67-8-85 8-23 63-33 173-13 247zm640-108c-2-40-12-70-23-100-49 2-96 5-137 15 8 44 22 81 39 116 47-4 84-17 121-31" fill="#fddd04"/><g fill="#c2af23"><path d="M538 1559c9-57 16-116 21-177 13-7 46-1 64 3 4 57-8 137-28 187-20-4-40-7-57-13zm118 90c37-62 49-159 47-252-28-32-103-30-152-33-10 91-26 176-36 267 37 6 93 25 141 18M829 1598c56 10 69-84 38-118-65-29-91 96-38 118M1797 1439c-60 22-21 131 33 115 46-13 9-118-33-115M438 1379c53 16 60-98 16-100-41-1-56 88-16 100M667 1233h-8c-21 7-20 60 10 46 9-12 12-38-2-46M1781 1272c17-23 2-73-33-65-17 24-5 73 33 65M554 1100c1-42 2-84 10-119 103 10 209 17 293 47 0 30-13 48-16 77-99 1-191-4-287-5zm352 77c19-44 31-96 41-149-124-32-254-51-393-62-11 66-17 137-26 205 120 6 259 23 378 6M1766 1105c-17-35-31-72-39-116l16-3 2-1 4-1h4l2-1h4l2-1h4l2-1h4l2-1 9-1h4c25-3 51-4 78-5 11 30 21 60 23 100-35 13-69 26-112 30h-7l-2 1zm203 7c-7-58-19-113-41-156l-21-11c-60 17-147 6-192 31 7 45 11 81 28 126 13 36 26 70 79 64 51-5 115-31 147-54M1486 986c-39-27-49 66-3 52 10-13 10-36 3-52M995 1028c59 13 64-111 16-113-49-3-63 102-16 113M1979 832c-48 35 8 135 49 113 39-20 15-126-49-113M1227 760c-57-10-67 78-36 103 49 41 84-83 36-103"/><path d="m1617 1261 5-7c27 124 60 243 67 387 109-16 212-39 331-46-41-114-90-221-131-336 81-20 194-6 256-44 11-7 21-16 28-26l1-2c5-10 4-21 4-39 2-79-30-153-58-221-30-74-61-173-149-184-65-9-144 17-208 35-66 20-125 46-177 67-40-132-138-231-323-218-40 3-83 15-116 33-51 29-88 70-95 144-219-47-441-90-652-144-43 341-87 693-124 1030 75 21 156 37 239 52 80 14 172 37 257 25 42-6 107-39 134-67 48-49 63-140 64-233 0-53-1-109-28-139-17-19-43-22-67-38 2-6 15-7 23-9l1-1c56-15 93-31 109-57 7-10 13-24 18-34 10 26 7 44 16 70 38 108 245 117 388 100 47-6 97-12 127-31a87 87 0 0 0 11-8c19-16 34-36 49-59zm-739 19-150 17c73 24 140 54 203 88 41 74 22 255-31 308-38 38-104 69-179 64-120-8-259-35-362-64 36-321 73-626 113-940 204 42 411 90 621 136a980 980 0 0 1-85 322l-1 2c-12 21-84 61-129 67zm687 36-8 4c-35 14-89 22-140 26-113 9-229-1-288-49-36-49-33-192-23-275 12-95 9-200 38-259 27-53 142-74 226-67 142 13 196 135 229 278 20 84 35 197 14 274l-6 16-5 10c-9 18-22 33-37 42zm573-109c-80 21-198 16-272 34 36 120 86 225 131 336-76 7-155 22-234 34-39-243-90-474-156-689 87-38 215-105 331-115 97-9 117 22 149 87 38 78 68 159 86 254 0 29-10 50-35 59"/><path d="M1260 935c5-4 11-7 19-10h1l1-1h2l1-1h1c20-5 44-4 60 4 25 65 40 165 36 242l-50 5h-4l-4 1h-7l-2 1h-10l-2 1h-9l-2 1h-8l-2 1h-9l-2 1h-8l-2 1h-11v1h-2c-20-74-10-184 13-247zm-10 313c49 8 96-4 149-10 15-1 35 1 43-5 12-8 16-43 16-62-1-68-28-153-36-223-19-59-140-50-170-13-25 84-45 236-2 313"/></g></g></svg>
